<?xml version="1.0" encoding="UTF-8"?>
<svg id="Ebene_1" data-name="Ebene 1" xmlns="http://www.w3.org/2000/svg" viewBox="0 0 67.29 73.46">
  <defs>
    <style>
      .cls-1, .cls-2 {
        stroke-width: 0px;
      }

      .cls-2 {
        fill: #eada7f;
      }
    </style>
  </defs>
  <path class="cls-2" d="m46.29,55.85c-3.19-5.7-3.33-8.97-.42-12.34,2.36-2.75,5.77-3.32,9.65-1.76.72-.68,1.28-1.38,1.99-1.85,2.3-1.53,2.98-4.03,1.67-6.73-.28.22-.55.43-.73.56-.23-1.22-.34-2.49-.75-3.66-.18-.5-.96-.96-1.54-1.06-.38-.07-1.02.44-1.3.85-.55.8.14,2.1,1.16,2.36.3.07.63.01.94.01.05,1.28-.61,2.13-1.68,2.2-1.61.11-2.6-1.12-2.95-3.67l-.32.03c.1.72.1,1.48.32,2.17.23.74.66,1.42,1.04,2.21-1.56-.54-2.93-2.62-2.98-4.4-.05-1.77.94-3.33,2.62-3.97.63-.24,1.32-.37,1.99-.49,1.3-.22,1.5-.69.98-1.9-.37-.85-.77-1.8-.74-2.7.05-1.38.77-1.64,1.96-.94.83.48,1.65.98,2.7,1.29-.88-1.53-1.76-3.06-2.63-4.58l.25-.21c1.39,1.53,2.8,3.03,4.14,4.6.55.64,1,1.37,1.39,2.12.2.39.36,1.02.18,1.32-.16.25-.84.21-1.29.24-.22.02-.45-.1-1.06-.24,2.73,2.95,2.73,6.71,4.2,9.87.14-.04.27-.07.41-.11-.09-.42-.15-.84-.26-1.25-.36-1.27-.82-2.52-1.09-3.81-.33-1.57.25-2.83,1.73-3.71-1.19,2.18-.42,4.21.4,6.22.84,2.06,1.15,4.18,1,6.39-.02.36-.07.73-.2,1.06-.41,1.09-1.43,1.3-1.97.28-.68-1.3-1.17-2.73-1.56-4.15-.53-1.94-.82-3.95-1.35-5.89-.24-.88-.79-1.67-1.2-2.5l-.58.15c.05.56-.02,1.16.17,1.67.65,1.82,1.44,3.59,2.08,5.42.37,1.05.63,2.16.79,3.26.18,1.27-.29,2.31-1.31,3.19-1.55,1.34-2.16,3.05-1.65,5.11,1.08,4.27-1.36,10.19-7.64,10.97-.4.05-.79.12-1.28.2-.14,7.21-3.19,12.63-10.25,14.9-6.78,2.17-12.68.33-17.27-4.94-.17.98-.21,2.15-.6,3.2-1.04,2.79-5.01,3.34-6.66,1.65-.96-.98-1.84-1.89-3.53-1.21.28-1.01.52-1.72.67-2.46.53-2.5-.57-4.13-3.05-4.54-.75-.12-1.52-.22-2.28-.23-4.26-.06-6.43-2.48-5.99-6.85.98.93,1.86,1.89,2.86,2.7.9.73,1.95,1.17,3.13.57,1.1-.55,1.49-1.67.68-2.58-1.06-1.19-2.23-2.36-3.54-3.26C1.73,51.91-.09,48.18,0,43.42c.03-1.43,0-2.86.16-4.29,1.93,6.79,3.98,9.98,7.51,11.13-.7-1.05-1.3-1.93-1.9-2.82.05-.04.11-.08.16-.12.34.26.67.52,1.01.78l.19-.15c-.54-.8-1.08-1.6-1.63-2.39-.87-1.26-1.11-2.54-.36-3.97.16-.31,0-.9-.2-1.27-1.77-3.44-2.3-7.02-1.07-10.73.77-2.32,2.15-4.23,4.31-5.5,1.6-.94,3.19-1.89,4.83-2.76,1.31-.7,2.07-1.7,2.33-3.17.34-1.96,1.31-3.65,2.69-5.06,1.06-1.08,2.46-1.17,4.17-.84-.53.23-.82.35-1.1.48-2.17,1.01-3.02,2.59-2.67,4.99.29,2,.17,2.23-1.67,2.79-7.42,2.25-7.6,10.8-4.35,14.93,1.07,1.36,2.68,1.51,3.92.42,1.5-1.33,1.63-2.52.13-3.88-1.71-1.55-2.54-3.31-2.4-5.64.17-2.93,1.93-5.12,4.82-5.68.24-.05.48-.09.72-.11,5.18-.45,8.27-3.49,8.78-8.66.36-3.63,2.14-5.2,6.05-5.04-3.89,2.65-4.98,6.37-4.94,10.61,1.4-.17,2.78-.33,4.15-.5.19-1.71.41-2.13,2.17-2.24,1.56-.1,3.16.22,4.73.4.38.04.75.25,1.41.48-.64-1.5-1.09-2.81-1.73-4.02-1.82-3.48-.5-9.85,4.96-11.59-.23,1.02-.44,2.01-.68,2.99-.61,2.5.08,4.77,1.11,7.01,1.33,2.89,3.21,5.4,5.3,7.76,2,2.26,2.21,3.07,1.58,6.01.58.08,1.15.15,1.93.25-.95.79-1.78,1.45-2.58,2.14-2.33,2.02-3.02,5.08-1.75,7.88.79,1.73,2.31,2.53,4.06,2.94.93.22,1.89.31,2.92.47-.36,1.06-1.12,1.35-2.12,1.45-1.96.19-3.93.35-5.85.77-3.41.74-5.7,2.85-6.52,6.26-.84,3.48.24,6.52,2.63,9.12.3.32.72.54,1.09.8Zm-16.01,9.42c.71-.92,1.63-2.11,2.54-3.29,2.11-2.74,2.11-5.25.17-8.39-.88-1.42-2.18-1.72-3.67-.97-1.88.94-3.25,2.39-3.95,4.38-2.27,6.47,3.25,14.19,10.11,14.18,5.93,0,11.13-3.7,13.13-9.33.76-2.13.63-2.41-1.46-3.26-.19-.08-.37-.16-.56-.23-6.93-2.78-7.55-12.47-4.08-16.17,1.58-1.69,3.38-2.99,5.57-3.71,1.01-.33,2.04-.59,3.2-.92-.43-.4-.76-.69-1.07-.99-1.13-1.09-2.04-2.36-2.17-3.95-.22-2.7.5-5.25,1.88-7.56,1.37-2.3,1.36-3.26-.33-5.31-1.39-1.68-2.77-3.36-4.06-5.12-1.57-2.14-2.75-4.47-2.97-7.17-.06-.71-.12-1.43-.21-2.42-.85,2.04-.92,3.7-.12,5.56,1.14,2.62,2.29,5.25,3.6,7.79,1.99,3.87,1.38,8.92-1.61,12.04-2.25,2.35-4.2,2.49-6.69.48-.73-.59-1.62-1.07-2.41-.38-1.15,1.03-2.22,2.19-3.13,3.43-.38.52-.27,1.41-.38,2.13.1,0,.19,0,.29,0,.4-.62.8-1.24,1.2-1.86.11.06.21.12.32.17-.04.31-.18.64-.11.93.13.54.37,1.05.57,1.58.4-.28.83-.52,1.19-.84.46-.4.87-.86,1.37-1.36.49,1.4-.75,3.95-2.42,4.52-3.6,1.23-4.39-1.79-5.7-4.4-.03,1.85.35,3.22,1.27,4.39,2.25,2.89,5.14,2.82,7.3-.08,1.01-1.36,2.13-2.64,3.24-3.91.58-.66,1.27-1.23,2.06-1.99-1.37,2.15-2.69,4.03-3.81,6.02-1.92,3.41-3.02,4.01-6.95,3.44-.07-.01-.15.04-.22.07.62,2.21,3.08,2.91,4.82,1.15,1.16-1.17,1.98-2.71,2.82-4.16,1.43-2.49,2.87-4.97,5.24-6.71.74-.55,1.65-.86,2.39,0,.7.81.43,1.67-.19,2.4-.57.67-1.2,1.3-1.88,2.02.95.79.42,1.36-.26,1.94-.46.39-.86.85-1.29,1.28-2.12,2.1-3.31,4.6-3.47,7.62-.03.59-.49,1.24-.92,1.71-.42.45-1.05.7-1.79,1.17,2.52,1.23,4.78,2.65,5.45,5.44.64,2.67.51,5.25-1.42,7.51-2.71,3.16-7.41,4.18-10.15,2.08,2.54-1.33,5.52-2.12,6.46-5.36.76-2.63-.29-6.61-2.14-7.91-.02.03-.06.07-.05.1.08.23.15.46.25.67.97,2.08,1.06,4.28.74,6.49-.41,2.81-3.7,5.38-5.52,5.05Zm10.87-37.01c-2.07-2.1-4.32-3.55-7.01-3.89-2.5-.32-5.06-.2-7.6-.24-.82-.01-1.42.36-1.82,1.15-.47.93-1.03,1.83-1.61,2.7-2.18,3.29-4.27,6.64-6.62,9.81-1.38,1.87-3.33,3.12-5.83,3.26-.79.04-1.59.31-2.32.62-1.42.61-1.72,1.57-.93,2.88.47.79,1.02,1.56,1.64,2.23,3.59,3.82,8.01,6.46,12.63,8.83.34.17.76.21,1.14.3.06-.12.11-.24.17-.36-.29-.21-.57-.45-.88-.63-1.39-.83-2.81-1.59-4.16-2.47-2.88-1.87-5.67-3.88-7.66-6.76-.35-.5-.59-1.07-.92-1.67,4.91-1.23,8.94.82,13.07,2.29-.54,1.24-1.11,2.31-1.47,3.45-.37,1.16.59,2.66,2.05,3.34,1.23.58,1.26-.78,1.83-1.25.39-.33.64-.83.99-1.22.58-.66.36-1.14-.38-1.34-.79-.22-1.62-.29-2.57-.45.24-.44.49-.8.65-1.19.38-.94.91-1.06,1.76-.52.78.49,1.63.88,2.48,1.26.68.3,1.31.26,1.77-.75-2.66-1.13-5.21-2.32-7.84-3.29-2.6-.96-5.29-1.71-7.99-2.57.95-.83,1.82-.87,2.96-.53,3.63,1.07,7.3,2.03,10.99,2.83,1.23.27,2.43.34,3.29,1.37.01.01.12-.06-.04.02-.73-1.45-1.44-2.9-2.18-4.34-.28-.54-.65-1.02-.91-1.56-.54-1.11-1.38-2.23-1.47-3.38-.12-1.72-1.11-2.77-2.09-3.91-.24-.28-.55-.52-.69-.83-.18-.38-.43-1.01-.26-1.21.29-.35.87-.6,1.34-.61,1.04-.04,2.09.17,3.13.12.47-.02.93-.42,1.39-.65-.03-.12-.06-.23-.09-.35-1.9-.38-2.38-2.07-3.33-3.48,1.37-.2,2.69-.07,3.97-.23,1.77-.22,3.15.17,4.14,1.74.27.43.78.72,1.18,1.07.09-.09.18-.17.27-.26-.06-.4-.12-.81-.2-1.33,1.63.16,3.04.49,3.97,1.86.23.34.39.72.58,1.08.45-.29.9-.57,1.47-.93Zm9.74,26.22c1.24-.97,2.62-1.82,3.72-2.96,1.58-1.63,2.17-3.64,1.37-5.89-.39-1.11-1.03-1.71-2.01-1.91.24.32.46.6.66.9,1.63,2.45,1.28,5.18-1.07,6.97-1,.76-2.25,1.21-3.42,1.75-.68.31-1.24.19-1.56-.6-.32-.79.16-1.07.74-1.38,1.94-1,2.64-2.76,2.72-4.8.06-1.4-.99-2.56-2.21-2.32-1.02.2-2.16.62-2.88,1.32-2.2,2.13-1.88,6.87.59,8.7,2.47,1.83,5.29,1.98,8.03.71,2.64-1.23,4.21-3.34,4.11-6.41-.04-1.2-.18-2.4-.22-3.61-.06-1.63,0-3.2,1.41-4.41.48-.41.8-1.13.96-1.76.48-1.91.06-3.8-.64-5.54-1.21-2.98-2.61-5.89-3.99-8.8-.68-1.44-.62-1.68.93-2.21-.58-.07-1.17-.15-1.75-.22.01.56-.04,1.13.06,1.66.08.42.37.8.55,1.21,1.27,2.87,2.55,5.74,3.79,8.63.98,2.3.64,4.41-.75,6.52-.67,1.02-1.03,2.37-1.14,3.6-.13,1.5.2,3.04.23,4.57.08,3.89-3.08,7.98-8.23,6.3Zm-40.69,1.35c-.06.08-.13.16-.19.24.33.26.67.5.99.77.37.31.75.61,1.09.96.96.99.98,2.22.02,3.21-.72.74-1.55,1.27-2.67,1.14-.86-.09-1.72-.12-2.58-.18,1.95.88,4.01.38,6.07.64-.48-1.66.25-2.58,1.7-2.01,1.4.55,2.75,1.5,3.81,2.58,1.22,1.25,1.36,3,1.2,4.7-.35-.35-.5-.83-.83-1.07-.43-.31-1.19-.75-1.45-.58-.43.28-.75.99-.8,1.54-.05.51.26,1.08.5,1.59.57,1.18,1.73,1.97,2.5,1.77.98-.26,1.87-1.79,1.76-3.04,0-.12-.06-.23-.08-.35-.58-3.73-2.77-6.14-6.19-7.57-.47-.2-.91-.7-1.16-1.17-.84-1.58-2.24-2.4-3.7-3.17ZM29,20.51c5.28-.03,9.96,1.7,14.24,4.55.86-1.09.9-1.3.18-1.88-2.35-1.89-4.9-3.41-7.97-3.83-2.24-.31-4.37,0-6.44,1.17Zm-22.86,13.8c-.28.53-.76,1.03-.77,1.53-.02.73.22,1.5.49,2.2.96,2.48,1.31,2.59,3.67,1.32,1.81-.97,1.85-1.17.36-2.62-.66-.64-1.38-1.22-2.13-1.76-.38-.27-.87-.37-1.63-.68Zm2.32-.47c-.15-3.34.88-6.36,2.25-9.4-2.26.7-4.66,3.03-4.82,4.86-.17,1.99,1.23,3.27,2.57,4.54Zm10.21-2.35c-.29-3.11-1.08-6.13.91-8.88-1.89,0-3.5,1.34-4,3.18-.5,1.84.89,4.5,3.09,5.69Zm21.68,8.71c-1.57,1.47-2.51,3.37-3.08,5.5-.23.84-.53,1.69-.97,2.44-.49.84-1.27,1.03-2.18.38.08-.21.13-.4.23-.56.38-.68.28-1.39-.43-1.57-.38-.1-1.12.4-1.37.82-.56.92-.08,1.81.58,2.49.68.71,1.61.69,2.3.07.73-.66,1.45-1.44,1.86-2.31,1.12-2.37,2.07-4.83,3.08-7.25Zm3.55-19.84c-.04-1.8-1.42-2.4-2.61-2.97-1.26-.6-2.64-1.32-4.4-.2,2.46,1.11,4.67,2.11,7.01,3.17Zm-15.59,2.21c5.27,0,9.72,1.76,13.97,4.19-1.62-2.73-10.88-5.54-13.97-4.19Zm-5.76,41.58c.05-.02.1-.04.15-.06-.28-1.02-.23-2.46-.91-2.99-1.87-1.47-4.03-2.56-6.13-3.84-.38.88-.12,1.14.57,1.48,1.34.67,2.69,1.41,3.83,2.37.98.83,1.67,2.01,2.49,3.03Zm9.89-35.53c-.89.09-2.14-.1-2.39.32-.42.69-.22,1.76-.21,2.67,0,.15.39.29.6.43.07-.07.13-.13.2-.2-.14-.48-.28-.97-.41-1.45q1.87-.62,2.22-1.78Zm-8.9-5.29c-.1-.12-.21-.25-.31-.37-.6.36-1.41.58-1.74,1.1-.45.7-.53,1.64.22,2.57.66-1.18,1.25-2.24,1.84-3.3Zm-1.87,36.15l.18-.29c-1.76-1.09-3.51-2.18-5.27-3.27-.08.13-.15.25-.23.38,1.77,1.06,3.55,2.12,5.32,3.19ZM59.95,25.21c.05-.19.11-.38.16-.57-.57-.17-1.15-.35-1.72-.52-.04.21-.15.6-.13.61.55.18,1.12.32,1.68.47ZM21.91,58.2c.06-.1.12-.2.19-.3-1.2-.68-2.4-1.35-3.61-2.03-.05.08-.09.16-.14.24,1.19.69,2.37,1.39,3.56,2.08Z"/>
  <path class="cls-2" d="m52.1,67.82c.26-.09.52-.19.78-.27.96-.28,1.19-.88.78-1.76-.34-.73-.69-1.46-1.01-2.2-1.76-4.13,1.43-5.86,4.32-5.94.95-.03,1.92-.16,2.84-.39.89-.22,1.26-.84,1.13-1.83-.13-1.03-.11-2.09-.07-3.13.06-1.39.93-2.2,2.59-2.37-1.67,1.75-1.06,3.56-.46,5.38.51,1.56-.06,2.79-1.58,3.43-.7.29-1.44.48-2.21.72.15,1,.4,1.96.42,2.93.02,1.07-.79,1.64-1.71,1.95-.8.27-1.75.34-2.16-.49-.3-.6-.15-1.43-.15-2.15,0-.13.27-.26.47-.43.15.28.26.49.37.69.41.79.89.61,1.27.03.49-.75.5-1.61-.2-2.2-.74-.62-1.79-.75-2.41,0-.53.65-.88,1.64-.87,2.48.02.82.57,1.64.93,2.44.26.59.66,1.12.85,1.72.44,1.41-.48,2.55-1.95,2.37-.69-.08-1.35-.41-2.02-.63.02-.12.04-.24.06-.36Z"/>
  <path class="cls-2" d="m51.31,15.42c1.61.8,2.87,1.56,3.45,3.03.14.34-.02.8-.04,1.21-.42-.06-.93.02-1.24-.2-1.31-.9-1.71-2.32-2.16-4.04Z"/>
  <path class="cls-2" d="m55.76,16.84c.44.75.93,1.48,1.29,2.26.08.18-.28.57-.44.86-.26-.16-.66-.26-.75-.48-.29-.76-.47-1.56-.69-2.35.2-.09.4-.19.59-.28Z"/>
  <path class="cls-1" d="m30.29,65.28c1.82.33,5.11-2.24,5.52-5.05.32-2.21.24-4.41-.74-6.49-.1-.22-.17-.45-.25-.67,0-.02.04-.07.05-.1,1.85,1.3,2.91,5.28,2.14,7.91-.94,3.23-3.92,4.02-6.46,5.36,2.73,2.1,7.44,1.08,10.15-2.08,1.93-2.26,2.06-4.84,1.42-7.51-.67-2.79-2.93-4.2-5.45-5.44.73-.46,1.37-.71,1.79-1.17.43-.47.89-1.12.92-1.71.15-3.02,1.34-5.52,3.47-7.62.43-.43.83-.89,1.29-1.28.68-.58,1.21-1.14.26-1.94.68-.72,1.31-1.35,1.88-2.02.63-.74.9-1.59.19-2.4-.75-.87-1.65-.55-2.39,0-2.36,1.75-3.81,4.22-5.24,6.71-.83,1.45-1.66,2.99-2.82,4.16-1.74,1.76-4.2,1.06-4.82-1.15.07-.03.15-.08.22-.07,3.93.57,5.03-.03,6.95-3.44,1.12-1.99,2.44-3.87,3.81-6.02-.79.76-1.48,1.32-2.06,1.99-1.12,1.27-2.23,2.55-3.24,3.91-2.16,2.9-5.04,2.97-7.3.08-.91-1.17-1.3-2.55-1.27-4.39,1.31,2.61,2.1,5.63,5.7,4.4,1.67-.57,2.91-3.12,2.42-4.52-.5.5-.91.96-1.37,1.36-.36.32-.79.56-1.19.84-.2-.52-.44-1.04-.57-1.58-.07-.28.07-.62.11-.93-.11-.06-.21-.12-.32-.17-.4.62-.8,1.24-1.2,1.86-.1,0-.19,0-.29,0,.11-.72,0-1.6.38-2.13.91-1.25,1.98-2.41,3.13-3.43.78-.69,1.67-.21,2.41.38,2.49,2,4.44,1.86,6.69-.48,2.99-3.12,3.61-8.17,1.61-12.04-1.31-2.54-2.47-5.16-3.6-7.79-.81-1.86-.74-3.52.12-5.56.08.99.15,1.7.21,2.42.23,2.71,1.41,5.03,2.97,7.17,1.29,1.76,2.67,3.44,4.06,5.12,1.69,2.05,1.7,3.01.33,5.31-1.38,2.31-2.09,4.86-1.88,7.56.13,1.58,1.04,2.85,2.17,3.95.31.3.64.59,1.07.99-1.16.33-2.19.59-3.2.92-2.19.72-3.99,2.02-5.57,3.71-3.47,3.71-2.85,13.39,4.08,16.17.19.08.37.16.56.23,2.09.85,2.21,1.13,1.46,3.26-2,5.63-7.2,9.32-13.13,9.33-6.86,0-12.38-7.71-10.11-14.18.7-1.99,2.07-3.44,3.95-4.38,1.49-.75,2.79-.45,3.67.97,1.94,3.15,1.93,5.66-.17,8.39-.91,1.18-1.83,2.37-2.54,3.29Z"/>
  <path class="cls-1" d="m41.15,28.27c-.57.36-1.02.65-1.47.93-.19-.36-.35-.74-.58-1.08-.93-1.37-2.34-1.7-3.97-1.86.08.53.14.93.2,1.33-.09.09-.18.17-.27.26-.4-.35-.91-.64-1.18-1.07-.99-1.58-2.37-1.96-4.14-1.74-1.28.16-2.6.03-3.97.23.95,1.41,1.43,3.1,3.33,3.48.03.12.06.23.09.35-.46.23-.92.63-1.39.65-1.04.05-2.09-.16-3.13-.12-.47.02-1.05.27-1.34.61-.17.2.09.82.26,1.21.15.32.45.56.69.83.98,1.15,1.97,2.19,2.09,3.91.08,1.16.93,2.27,1.47,3.38.26.54.64,1.03.91,1.56.74,1.44,1.46,2.89,2.18,4.34.15-.08.05,0,.04-.02-.86-1.04-2.06-1.11-3.29-1.37-3.7-.8-7.36-1.77-10.99-2.83-1.14-.34-2.01-.3-2.96.53,2.71.86,5.39,1.61,7.99,2.57,2.63.97,5.18,2.17,7.84,3.29-.47,1.01-1.1,1.05-1.77.75-.85-.37-1.7-.76-2.48-1.26-.85-.54-1.38-.42-1.76.52-.16.4-.41.76-.65,1.19.94.16,1.77.23,2.57.45.74.2.96.68.38,1.34-.35.39-.59.89-.99,1.22-.57.47-.6,1.83-1.83,1.25-1.45-.68-2.41-2.18-2.05-3.34.36-1.13.93-2.2,1.47-3.45-4.13-1.47-8.16-3.53-13.07-2.29.33.6.58,1.17.92,1.67,1.99,2.88,4.78,4.88,7.66,6.76,1.35.88,2.78,1.64,4.16,2.47.31.18.59.42.88.63-.06.12-.11.24-.17.36-.38-.1-.8-.13-1.14-.3-4.62-2.36-9.04-5.01-12.63-8.83-.63-.67-1.17-1.44-1.64-2.23-.79-1.31-.48-2.27.93-2.88.73-.31,1.54-.58,2.32-.62,2.5-.14,4.45-1.39,5.83-3.26,2.35-3.16,4.44-6.52,6.62-9.81.58-.87,1.14-1.77,1.61-2.7.4-.79,1.01-1.16,1.82-1.15,2.53.04,5.09-.08,7.6.24,2.7.34,4.95,1.79,7.01,3.89Zm-18.38,3.21c-.52.8-.85,1.3-1.17,1.81q-1.63,2.56.79,4.36c.8.6,2.39.67,3.05.09.81-.72.66-1.72.22-2.44-.78-1.28-1.81-2.41-2.89-3.81Zm-6.71,8.95c3.17.82,6.1,1.58,9.03,2.34.1-.14.2-.29.29-.43-1.81-1.67-3.6-3.36-5.44-5-.17-.15-.73-.11-.91.05-.98.93-1.9,1.93-2.97,3.04Zm7.49-1.41c.82,1.09,1.64,1.94,2.16,2.95.62,1.2,1.44,1.09,2.47.83-.31-.67-.62-1.23-.83-1.83-.74-2.07-.72-2.07-2.97-2.02-.2,0-.39.03-.84.07Zm.95-10.98h2.36c-.56-.64-.97-1.11-1.49-1.71-.33.64-.57,1.11-.87,1.71Z"/>
  <path class="cls-1" d="m50.89,54.48c5.15,1.68,8.31-2.41,8.23-6.3-.03-1.53-.36-3.06-.23-4.57.11-1.23.47-2.58,1.14-3.6,1.4-2.11,1.73-4.22.75-6.52-1.23-2.89-2.52-5.75-3.79-8.63-.18-.41-.47-.78-.55-1.21-.1-.54-.05-1.11-.06-1.66.58.07,1.17.15,1.75.22-1.55.54-1.61.77-.93,2.21,1.38,2.91,2.78,5.82,3.99,8.8.7,1.74,1.12,3.64.64,5.54-.16.63-.48,1.35-.96,1.76-1.41,1.22-1.47,2.78-1.41,4.41.04,1.2.18,2.4.22,3.61.1,3.07-1.47,5.18-4.11,6.41-2.74,1.27-5.55,1.12-8.03-.71-2.47-1.82-2.79-6.57-.59-8.7.72-.7,1.86-1.12,2.88-1.32,1.22-.24,2.26.92,2.21,2.32-.09,2.04-.78,3.79-2.72,4.8-.58.3-1.06.59-.74,1.38.32.79.88.92,1.56.6,1.16-.54,2.41-.99,3.42-1.75,2.35-1.78,2.69-4.51,1.07-6.97-.2-.3-.42-.58-.66-.9.98.19,1.62.8,2.01,1.91.8,2.25.2,4.26-1.37,5.89-1.1,1.13-2.48,1.99-3.72,2.96Z"/>
  <path class="cls-1" d="m10.2,55.83c1.46.77,2.86,1.59,3.7,3.17.25.47.69.97,1.16,1.17,3.42,1.44,5.61,3.84,6.19,7.57.02.12.07.23.08.35.1,1.26-.78,2.78-1.76,3.04-.76.2-1.93-.59-2.5-1.77-.24-.5-.55-1.08-.5-1.59.05-.56.37-1.26.8-1.54.26-.17,1.03.26,1.45.58.33.24.48.72.83,1.07.16-1.7.02-3.45-1.2-4.7-1.06-1.08-2.41-2.03-3.81-2.58-1.45-.58-2.18.35-1.7,2.01-2.06-.26-4.11.24-6.07-.64.86.06,1.72.08,2.58.18,1.12.12,1.95-.4,2.67-1.14.96-.99.94-2.22-.02-3.21-.33-.35-.72-.65-1.09-.96-.32-.27-.66-.51-.99-.77.06-.08.13-.16.19-.24Z"/>
  <path class="cls-1" d="m29,20.51c2.07-1.17,4.21-1.47,6.44-1.17,3.07.42,5.61,1.94,7.97,3.83.72.58.68.79-.18,1.88-4.28-2.85-8.96-4.58-14.24-4.55Z"/>
  <path class="cls-1" d="m6.14,34.31c.76.31,1.25.41,1.63.68.75.53,1.47,1.12,2.13,1.76,1.49,1.45,1.45,1.65-.36,2.62-2.36,1.27-2.71,1.16-3.67-1.32-.27-.7-.51-1.47-.49-2.2.01-.51.48-1,.77-1.53Z"/>
  <path class="cls-1" d="m8.46,33.83c-1.34-1.28-2.74-2.56-2.57-4.54.16-1.82,2.56-4.15,4.82-4.86-1.37,3.04-2.4,6.06-2.25,9.4Z"/>
  <path class="cls-1" d="m18.66,31.48c-2.2-1.19-3.58-3.86-3.09-5.69.5-1.85,2.12-3.18,4-3.18-1.99,2.75-1.2,5.77-.91,8.88Z"/>
  <path class="cls-1" d="m40.34,40.2c-1.02,2.43-1.97,4.88-3.08,7.25-.41.87-1.13,1.65-1.86,2.31-.69.62-1.61.63-2.3-.07-.66-.68-1.13-1.57-.58-2.49.25-.42.99-.91,1.37-.82.71.18.82.89.43,1.57-.09.17-.14.36-.23.56.92.65,1.69.46,2.18-.38.44-.75.75-1.6.97-2.44.57-2.13,1.5-4.03,3.08-5.5Z"/>
  <path class="cls-1" d="m43.9,20.36c-2.34-1.06-4.55-2.05-7.01-3.17,1.76-1.12,3.14-.4,4.4.2,1.2.57,2.57,1.16,2.61,2.97Z"/>
  <path class="cls-1" d="m28.31,22.57c3.1-1.35,12.36,1.46,13.97,4.19-4.25-2.43-8.7-4.18-13.97-4.19Z"/>
  <path class="cls-1" d="m22.55,64.15c-.82-1.02-1.51-2.2-2.49-3.03-1.14-.96-2.48-1.71-3.83-2.37-.68-.34-.95-.6-.57-1.48,2.1,1.27,4.26,2.36,6.13,3.84.67.53.63,1.97.91,2.99-.05.02-.1.04-.15.06Z"/>
  <path class="cls-1" d="m32.44,28.62q-.35,1.17-2.22,1.78c.14.48.28.96.41,1.45-.07.07-.13.13-.2.2-.21-.14-.59-.29-.6-.43,0-.91-.2-1.99.21-2.67.25-.42,1.5-.23,2.39-.32Z"/>
  <path class="cls-1" d="m23.54,23.33c-.59,1.06-1.18,2.12-1.84,3.3-.75-.93-.67-1.87-.22-2.57.34-.52,1.14-.75,1.74-1.1.1.12.21.25.31.37Z"/>
  <path class="cls-1" d="m21.67,59.48c-1.77-1.06-3.55-2.12-5.32-3.19.08-.13.15-.25.23-.38,1.76,1.09,3.51,2.18,5.27,3.27l-.18.29Z"/>
  <path class="cls-1" d="m59.95,25.21c-.56-.15-1.13-.29-1.68-.47-.02,0,.08-.4.13-.61.57.17,1.15.35,1.72.52-.05.19-.11.38-.16.57Z"/>
  <path class="cls-1" d="m21.91,58.2c-1.19-.69-2.37-1.39-3.56-2.08.05-.08.09-.16.14-.24,1.2.68,2.4,1.35,3.61,2.03-.06.1-.12.2-.19.3Z"/>
  <path class="cls-2" d="m22.77,31.48c1.08,1.4,2.11,2.53,2.89,3.81.44.72.59,1.72-.22,2.44-.66.59-2.25.51-3.05-.09q-2.42-1.8-.79-4.36c.32-.51.65-1.01,1.17-1.81Z"/>
  <path class="cls-2" d="m16.06,40.43c1.07-1.11,1.99-2.11,2.97-3.04.18-.17.74-.2.91-.05,1.84,1.64,3.64,3.33,5.44,5-.1.14-.2.29-.29.43-2.93-.76-5.86-1.52-9.03-2.34Z"/>
  <path class="cls-2" d="m23.55,39.02c.44-.04.64-.07.84-.07,2.25-.05,2.23-.05,2.97,2.02.21.6.53,1.16.83,1.83-1.03.26-1.85.37-2.47-.83-.52-1.01-1.35-1.86-2.16-2.95Z"/>
  <path class="cls-2" d="m24.5,28.04c.3-.59.54-1.07.87-1.71.52.6.93,1.06,1.49,1.71h-2.36Z"/>
</svg>