<?xml version="1.0" encoding="UTF-8"?>
<svg id="Ebene_1" data-name="Ebene 1" xmlns="http://www.w3.org/2000/svg" viewBox="0 0 75 73.82">
  <defs>
    <style>
      .cls-1, .cls-2, .cls-3 {
        stroke-width: 0px;
      }

      .cls-2 {
        fill: #09021a;
      }

      .cls-3 {
        fill: #eada7f;
      }
    </style>
  </defs>
  <path class="cls-2" d="m37.51,73.82C16.97,73.79-.05,56.98,0,36.79.05,16.74,17.09,0,37.44,0c20.52,0,37.59,16.81,37.56,36.98-.03,20.09-17.12,36.87-37.49,36.84Zm9.72-22.61c-.31-.22-.66-.4-.91-.67-1.99-2.17-2.9-4.72-2.2-7.62.69-2.85,2.6-4.62,5.45-5.23,1.6-.35,3.25-.48,4.89-.64.84-.08,1.47-.32,1.77-1.21-.86-.14-1.67-.21-2.44-.39-1.46-.35-2.74-1.01-3.39-2.46-1.06-2.34-.49-4.9,1.46-6.59.67-.58,1.36-1.13,2.15-1.79-.65-.09-1.13-.15-1.61-.21.53-2.46.35-3.13-1.32-5.02-1.75-1.98-3.32-4.07-4.43-6.49-.87-1.88-1.44-3.78-.93-5.86.2-.82.38-1.64.57-2.5-4.56,1.45-5.66,6.78-4.14,9.68.53,1.01.91,2.11,1.45,3.36-.55-.19-.86-.37-1.18-.4-1.32-.15-2.65-.42-3.95-.33-1.47.1-1.65.45-1.81,1.88-1.15.14-2.3.27-3.47.41-.03-3.55.88-6.65,4.13-8.87-3.27-.13-4.76,1.18-5.06,4.21-.43,4.32-3.01,6.86-7.34,7.24-.2.02-.4.05-.6.09-2.41.47-3.89,2.3-4.03,4.75-.11,1.95.58,3.42,2.01,4.72,1.25,1.14,1.14,2.14-.11,3.25-1.04.92-2.38.79-3.28-.35-2.72-3.45-2.57-10.6,3.64-12.48,1.54-.47,1.64-.66,1.4-2.34-.29-2,.42-3.33,2.24-4.17.23-.11.47-.21.92-.4-1.43-.28-2.6-.2-3.48.7-1.15,1.17-1.96,2.59-2.25,4.23-.22,1.23-.85,2.07-1.94,2.65-1.37.73-2.7,1.53-4.04,2.31-1.8,1.06-2.96,2.66-3.6,4.6-1.03,3.1-.59,6.09.89,8.97.16.31.3.8.16,1.06-.63,1.2-.43,2.27.3,3.32.46.66.91,1.33,1.36,2l-.16.12c-.28-.22-.56-.43-.84-.65-.04.03-.09.07-.13.1.5.74,1,1.48,1.58,2.36-2.95-.96-4.67-3.63-6.28-9.3-.13,1.19-.11,2.39-.14,3.58-.08,3.97,1.44,7.09,4.78,9.37,1.1.75,2.07,1.73,2.96,2.72.67.76.35,1.69-.57,2.15-.99.5-1.87.13-2.62-.48-.84-.68-1.57-1.48-2.39-2.26-.36,3.65,1.45,5.68,5.01,5.73.64,0,1.27.09,1.9.2,2.08.35,2.99,1.71,2.55,3.79-.13.61-.33,1.21-.56,2.05,1.41-.57,2.15.2,2.95,1.01,1.38,1.41,4.7.95,5.57-1.38.33-.87.36-1.85.5-2.67,3.84,4.4,8.77,5.94,14.44,4.13,5.9-1.89,8.45-6.42,8.57-12.45.41-.07.74-.13,1.07-.17,5.25-.65,7.29-5.6,6.39-9.17-.43-1.72.08-3.15,1.38-4.27.85-.74,1.25-1.61,1.1-2.67-.13-.92-.35-1.85-.66-2.73-.53-1.52-1.19-3.01-1.74-4.53-.15-.43-.1-.93-.14-1.4l.48-.12c.34.69.81,1.36,1.01,2.09.44,1.62.68,3.3,1.13,4.92.33,1.19.74,2.38,1.31,3.47.45.85,1.3.68,1.64-.23.1-.28.15-.59.17-.89.13-1.84-.14-3.62-.83-5.34-.68-1.68-1.32-3.38-.33-5.2-1.24.74-1.72,1.79-1.45,3.1.23,1.08.61,2.12.92,3.18.1.34.15.7.22,1.04-.11.03-.23.06-.34.09-1.22-2.64-1.22-5.79-3.51-8.25.51.12.7.21.88.2.38-.03.94.01,1.08-.2.16-.24.02-.78-.15-1.1-.32-.62-.71-1.24-1.16-1.77-1.12-1.31-2.3-2.57-3.46-3.84l-.21.18c.73,1.28,1.47,2.55,2.2,3.83-.88-.26-1.57-.68-2.26-1.08-1-.58-1.6-.36-1.64.79-.03.75.31,1.54.62,2.25.44,1.02.27,1.4-.82,1.59-.56.1-1.13.21-1.66.41-1.4.54-2.23,1.84-2.19,3.32.05,1.49,1.19,3.23,2.49,3.68-.32-.66-.67-1.23-.87-1.85-.18-.58-.18-1.21-.26-1.81l.27-.02c.29,2.13,1.12,3.16,2.46,3.07.9-.06,1.45-.77,1.41-1.84-.26,0-.54.05-.78,0-.86-.21-1.43-1.3-.97-1.97.23-.34.77-.77,1.08-.71.48.09,1.14.47,1.28.89.35.97.44,2.04.63,3.06.15-.11.37-.29.61-.47,1.09,2.25.52,4.34-1.4,5.62-.59.4-1.06.98-1.67,1.55-3.24-1.3-6.09-.82-8.07,1.47-2.43,2.82-2.31,5.55.35,10.32Zm4.85,10c-.02.1-.03.2-.05.3.56.18,1.11.46,1.69.53,1.23.15,2-.8,1.63-1.98-.16-.5-.49-.95-.71-1.44-.3-.67-.76-1.36-.78-2.04-.01-.7.28-1.53.72-2.07.52-.63,1.4-.52,2.02,0,.59.49.58,1.21.17,1.84-.31.48-.72.64-1.06-.02-.09-.18-.18-.35-.31-.58-.17.15-.39.26-.39.36,0,.61-.13,1.3.12,1.8.35.7,1.14.64,1.81.41.77-.26,1.45-.73,1.43-1.63-.01-.81-.22-1.62-.35-2.45.64-.21,1.26-.36,1.85-.6,1.27-.53,1.75-1.56,1.32-2.86-.49-1.53-1.01-3.04.39-4.5-1.39.14-2.11.82-2.16,1.98-.04.87-.06,1.75.05,2.61.11.83-.2,1.35-.95,1.53-.77.19-1.58.3-2.38.33-2.41.07-5.08,1.51-3.61,4.97.26.62.56,1.22.84,1.84.34.74.15,1.24-.65,1.47-.22.06-.44.15-.65.22Zm-.66-43.8c.38,1.44.71,2.62,1.81,3.38.26.18.69.12,1.04.17.02-.34.15-.72.03-1.01-.49-1.23-1.53-1.86-2.88-2.53Zm3.72,1.18c-.17.08-.33.16-.5.24.19.66.34,1.33.58,1.97.07.19.41.27.62.4.13-.24.44-.56.37-.72-.3-.66-.71-1.26-1.08-1.89Z"/>
  <g>
    <path class="cls-3" d="m47.04,51.21c-2.66-4.76-2.78-7.49-.35-10.32,1.98-2.3,4.82-2.78,8.07-1.47.6-.57,1.07-1.15,1.67-1.55,1.92-1.28,2.49-3.37,1.4-5.62-.24.18-.46.36-.61.47-.19-1.02-.28-2.08-.63-3.06-.15-.41-.8-.8-1.28-.89-.32-.06-.85.36-1.08.71-.46.67.11,1.76.97,1.97.25.06.52,0,.78,0,.04,1.07-.51,1.78-1.41,1.84-1.34.09-2.17-.94-2.46-3.07l-.27.02c.08.61.09,1.24.26,1.81.19.62.55,1.19.87,1.85-1.31-.45-2.45-2.19-2.49-3.68-.04-1.48.79-2.78,2.19-3.32.53-.2,1.1-.31,1.66-.41,1.09-.19,1.25-.57.82-1.59-.31-.71-.65-1.51-.62-2.25.04-1.15.64-1.37,1.64-.79.69.4,1.38.82,2.26,1.08-.73-1.28-1.47-2.55-2.2-3.83l.21-.18c1.16,1.28,2.34,2.54,3.46,3.84.46.53.84,1.15,1.16,1.77.17.32.3.86.15,1.1-.14.21-.7.17-1.08.2-.18.01-.38-.08-.88-.2,2.28,2.46,2.28,5.61,3.51,8.25.11-.03.23-.06.34-.09-.07-.35-.12-.7-.22-1.04-.3-1.06-.69-2.1-.92-3.18-.28-1.31.21-2.37,1.45-3.1-.99,1.83-.35,3.52.33,5.2.7,1.72.96,3.5.83,5.34-.02.3-.06.61-.17.89-.34.91-1.19,1.08-1.64.23-.57-1.09-.98-2.28-1.31-3.47-.44-1.62-.69-3.3-1.13-4.92-.2-.73-.66-1.4-1.01-2.09l-.48.12c.04.47-.02.97.14,1.4.55,1.52,1.21,3,1.74,4.53.31.88.53,1.8.66,2.73.15,1.06-.24,1.93-1.1,2.67-1.29,1.12-1.81,2.55-1.38,4.27.9,3.57-1.14,8.52-6.39,9.17-.33.04-.66.1-1.07.17-.12,6.03-2.66,10.56-8.57,12.45-5.67,1.82-10.6.27-14.44-4.13-.14.82-.18,1.8-.5,2.67-.87,2.33-4.19,2.79-5.57,1.38-.8-.82-1.54-1.58-2.95-1.01.23-.84.43-1.44.56-2.05.44-2.09-.47-3.45-2.55-3.79-.63-.1-1.27-.19-1.9-.2-3.56-.05-5.37-2.07-5.01-5.73.82.78,1.56,1.58,2.39,2.26.75.61,1.63.98,2.62.48.92-.46,1.24-1.4.57-2.15-.89-1-1.86-1.97-2.96-2.72-3.33-2.27-4.85-5.39-4.78-9.37.02-1.2,0-2.39.14-3.58,1.61,5.67,3.33,8.34,6.28,9.3-.59-.88-1.09-1.62-1.58-2.36.04-.03.09-.07.13-.1.28.22.56.43.84.65l.16-.12c-.45-.67-.9-1.34-1.36-2-.73-1.05-.93-2.12-.3-3.32.14-.26,0-.75-.16-1.06-1.48-2.88-1.92-5.86-.89-8.97.64-1.94,1.8-3.54,3.6-4.6,1.34-.78,2.67-1.58,4.04-2.31,1.1-.58,1.73-1.42,1.94-2.65.29-1.64,1.1-3.05,2.25-4.23.89-.9,2.06-.98,3.48-.7-.45.19-.68.29-.92.4-1.82.84-2.53,2.17-2.24,4.17.24,1.67.15,1.87-1.4,2.34-6.21,1.88-6.35,9.02-3.64,12.48.9,1.14,2.24,1.27,3.28.35,1.26-1.11,1.36-2.11.11-3.25-1.43-1.3-2.12-2.77-2.01-4.72.14-2.45,1.62-4.28,4.03-4.75.2-.04.4-.07.6-.09,4.33-.38,6.91-2.92,7.34-7.24.3-3.03,1.79-4.35,5.06-4.21-3.25,2.22-4.16,5.33-4.13,8.87,1.17-.14,2.33-.28,3.47-.41.16-1.43.35-1.78,1.81-1.88,1.31-.09,2.64.18,3.95.33.32.04.62.21,1.18.4-.53-1.25-.91-2.35-1.45-3.36-1.52-2.91-.42-8.23,4.14-9.68-.2.86-.37,1.68-.57,2.5-.51,2.09.06,3.99.93,5.86,1.11,2.42,2.68,4.51,4.43,6.49,1.67,1.89,1.85,2.56,1.32,5.02.48.06.96.13,1.61.21-.8.66-1.49,1.21-2.15,1.79-1.95,1.69-2.53,4.25-1.46,6.59.66,1.45,1.93,2.11,3.39,2.46.77.18,1.58.26,2.44.39-.3.89-.93,1.13-1.77,1.21-1.64.16-3.29.3-4.89.64-2.85.62-4.76,2.39-5.45,5.23-.7,2.9.2,5.45,2.2,7.62.25.27.6.45.91.67Zm-13.38,7.87c.6-.77,1.36-1.76,2.12-2.75,1.76-2.29,1.77-4.39.14-7.02-.73-1.19-1.82-1.44-3.07-.81-1.57.79-2.72,2-3.3,3.66-1.9,5.4,2.71,11.86,8.45,11.85,4.96,0,9.3-3.09,10.97-7.8.63-1.78.53-2.01-1.22-2.72-.16-.06-.31-.13-.47-.19-5.79-2.32-6.31-10.42-3.41-13.52,1.32-1.42,2.82-2.5,4.66-3.1.84-.28,1.71-.5,2.67-.77-.36-.33-.63-.57-.89-.83-.94-.91-1.71-1.97-1.81-3.3-.18-2.26.42-4.39,1.57-6.32,1.15-1.92,1.14-2.73-.27-4.44-1.16-1.4-2.32-2.81-3.39-4.28-1.31-1.79-2.3-3.73-2.48-5.99-.05-.6-.1-1.19-.17-2.02-.71,1.71-.77,3.09-.1,4.65.95,2.19,1.92,4.38,3.01,6.51,1.67,3.24,1.15,7.45-1.35,10.06-1.88,1.96-3.51,2.08-5.59.4-.61-.49-1.36-.89-2.01-.31-.97.86-1.86,1.83-2.62,2.87-.32.44-.22,1.18-.31,1.78.08,0,.16,0,.24,0,.33-.52.67-1.04,1-1.55.09.05.18.1.26.15-.04.26-.15.54-.1.77.11.45.31.88.48,1.32.33-.23.69-.44,1-.7.38-.33.72-.72,1.14-1.14.41,1.17-.63,3.3-2.03,3.78-3.01,1.03-3.67-1.5-4.77-3.68-.02,1.54.29,2.69,1.06,3.67,1.88,2.42,4.3,2.36,6.1-.07.84-1.13,1.78-2.2,2.71-3.27.49-.55,1.06-1.03,1.72-1.66-1.15,1.8-2.24,3.37-3.18,5.03-1.61,2.85-2.53,3.35-5.81,2.87-.06,0-.12.04-.19.06.52,1.85,2.58,2.43,4.03.96.97-.98,1.66-2.26,2.36-3.48,1.2-2.08,2.4-4.15,4.38-5.61.62-.46,1.38-.72,2,0,.59.68.36,1.39-.16,2.01-.48.56-1,1.08-1.57,1.69.79.66.35,1.14-.22,1.62-.38.33-.72.71-1.08,1.07-1.78,1.76-2.77,3.85-2.9,6.37-.02.49-.41,1.04-.77,1.43-.35.38-.88.59-1.49.98,2.11,1.03,4,2.22,4.56,4.55.53,2.23.43,4.39-1.19,6.28-2.26,2.64-6.2,3.5-8.48,1.74,2.13-1.12,4.62-1.77,5.4-4.48.64-2.19-.24-5.52-1.79-6.61-.02.03-.05.06-.05.08.07.19.13.38.21.56.81,1.74.88,3.58.61,5.42-.34,2.35-3.1,4.49-4.62,4.22Zm9.08-30.93c-1.73-1.76-3.61-2.97-5.86-3.25-2.09-.26-4.23-.17-6.35-.2-.68,0-1.19.3-1.52.96-.39.78-.86,1.53-1.34,2.26-1.82,2.75-3.57,5.55-5.53,8.2-1.16,1.56-2.79,2.61-4.88,2.73-.66.04-1.33.26-1.94.52-1.18.51-1.44,1.31-.78,2.41.4.66.85,1.31,1.37,1.87,3,3.19,6.7,5.4,10.56,7.38.29.15.63.17.95.25.05-.1.09-.2.14-.3-.25-.18-.48-.37-.74-.53-1.16-.69-2.35-1.33-3.48-2.06-2.41-1.57-4.74-3.24-6.4-5.65-.29-.42-.5-.89-.77-1.39,4.1-1.03,7.48.69,10.93,1.92-.45,1.04-.93,1.93-1.23,2.88-.31.97.5,2.22,1.71,2.8,1.03.48,1.06-.65,1.53-1.04.33-.27.54-.69.82-1.02.49-.55.3-.95-.31-1.12-.66-.18-1.36-.24-2.15-.38.2-.36.41-.67.55-1,.32-.78.76-.89,1.47-.43.65.41,1.36.74,2.07,1.05.57.25,1.09.22,1.48-.62-2.22-.94-4.35-1.94-6.55-2.75-2.18-.81-4.42-1.43-6.68-2.15.8-.69,1.52-.72,2.48-.44,3.03.89,6.1,1.7,9.19,2.37,1.03.22,2.03.28,2.75,1.15,0,.01.1-.05-.03.02-.61-1.21-1.21-2.43-1.83-3.63-.23-.45-.54-.85-.76-1.31-.45-.93-1.16-1.86-1.23-2.83-.1-1.44-.93-2.31-1.75-3.27-.2-.23-.46-.43-.58-.7-.15-.32-.36-.85-.22-1.01.25-.29.73-.5,1.12-.51.87-.03,1.75.14,2.62.1.39-.02.77-.35,1.16-.54-.02-.1-.05-.19-.07-.29-1.59-.31-1.99-1.73-2.78-2.91,1.14-.17,2.25-.06,3.32-.19,1.48-.18,2.63.14,3.46,1.46.23.36.65.6.99.9.07-.07.15-.14.22-.21-.05-.34-.1-.68-.17-1.12,1.36.14,2.54.41,3.32,1.55.19.28.33.6.49.9.38-.24.75-.48,1.23-.78Zm8.14,21.91c1.03-.81,2.19-1.53,3.11-2.47,1.32-1.36,1.82-3.04,1.15-4.92-.33-.92-.86-1.43-1.68-1.59.2.27.39.5.55.75,1.36,2.05,1.07,4.33-.89,5.82-.84.64-1.88,1.01-2.85,1.46-.57.26-1.04.16-1.3-.5-.26-.66.13-.9.62-1.15,1.62-.84,2.2-2.31,2.28-4.01.05-1.17-.83-2.14-1.84-1.94-.85.17-1.8.52-2.4,1.1-1.84,1.78-1.57,5.75.49,7.27,2.07,1.53,4.42,1.66,6.71.59,2.21-1.03,3.52-2.8,3.44-5.36-.03-1.01-.15-2.01-.19-3.02-.05-1.36,0-2.67,1.18-3.69.4-.34.67-.94.8-1.47.4-1.59.05-3.18-.54-4.63-1.01-2.49-2.18-4.92-3.33-7.36-.57-1.21-.52-1.4.78-1.85-.49-.06-.98-.12-1.47-.18.01.46-.04.94.05,1.39.07.35.31.67.46,1.01,1.06,2.4,2.13,4.8,3.17,7.21.82,1.92.54,3.68-.63,5.45-.56.85-.86,1.98-.95,3.01-.11,1.26.17,2.54.19,3.82.07,3.25-2.57,6.67-6.88,5.26Zm-34.01,1.12c-.05.07-.11.13-.16.2.28.21.56.42.83.64.31.26.63.51.91.8.8.83.82,1.86.02,2.69-.6.62-1.3,1.06-2.23.96-.72-.08-1.44-.1-2.16-.15,1.63.74,3.35.32,5.07.53-.4-1.39.21-2.16,1.42-1.68,1.17.46,2.3,1.25,3.19,2.16,1.02,1.04,1.13,2.51,1,3.93-.29-.29-.42-.69-.69-.89-.36-.26-1-.62-1.21-.48-.36.24-.63.82-.67,1.29-.04.43.22.91.42,1.33.48.98,1.45,1.65,2.09,1.48.82-.22,1.56-1.49,1.47-2.54,0-.1-.05-.2-.06-.3-.49-3.12-2.31-5.13-5.17-6.33-.4-.17-.76-.58-.97-.97-.7-1.32-1.87-2-3.09-2.65Zm15.71-29.53c4.41-.02,8.32,1.42,11.9,3.8.72-.91.75-1.09.15-1.58-1.97-1.58-4.09-2.85-6.66-3.2-1.87-.26-3.66,0-5.39.98Zm-19.11,11.54c-.24.44-.63.86-.64,1.28-.01.61.19,1.26.41,1.84.8,2.07,1.1,2.16,3.07,1.1,1.51-.81,1.55-.98.3-2.19-.55-.54-1.16-1.02-1.78-1.47-.32-.23-.73-.31-1.36-.57Zm1.94-.4c-.12-2.79.74-5.31,1.88-7.86-1.89.59-3.9,2.54-4.03,4.06-.14,1.66,1.03,2.73,2.15,3.8Zm8.53-1.96c-.24-2.6-.9-5.12.76-7.42-1.58,0-2.93,1.12-3.34,2.66-.41,1.54.74,3.76,2.58,4.76Zm18.12,7.28c-1.32,1.23-2.1,2.81-2.57,4.6-.19.7-.45,1.41-.81,2.04-.41.7-1.06.86-1.83.32.07-.18.11-.33.19-.47.32-.57.23-1.16-.36-1.31-.32-.08-.93.33-1.15.68-.47.77-.07,1.52.48,2.08.57.59,1.34.58,1.92.06.61-.55,1.21-1.2,1.55-1.93.93-1.98,1.73-4.03,2.58-6.06Zm2.97-16.58c-.03-1.51-1.18-2.01-2.18-2.48-1.06-.5-2.21-1.11-3.68-.17,2.06.93,3.9,1.76,5.86,2.65Zm-13.03,1.85c4.41,0,8.13,1.47,11.68,3.5-1.35-2.28-9.09-4.63-11.68-3.5Zm-4.82,34.76s.08-.03.13-.05c-.24-.86-.2-2.06-.76-2.5-1.56-1.23-3.37-2.14-5.12-3.21-.32.74-.1.96.47,1.24,1.12.56,2.25,1.18,3.2,1.98.82.69,1.4,1.68,2.08,2.53Zm8.27-29.7c-.74.08-1.79-.08-2,.27-.35.57-.19,1.47-.18,2.24,0,.12.32.24.5.36.06-.05.11-.11.17-.16-.12-.4-.23-.81-.35-1.21q1.57-.51,1.86-1.49Zm-7.44-4.42c-.09-.1-.17-.21-.26-.31-.5.3-1.18.48-1.46.92-.38.59-.45,1.37.18,2.15.55-.99,1.04-1.87,1.54-2.76Zm-1.56,30.22l.15-.24c-1.47-.91-2.94-1.82-4.41-2.74-.06.11-.13.21-.19.32,1.48.89,2.97,1.78,4.45,2.66Zm32-28.65l.14-.47c-.48-.14-.96-.29-1.44-.43-.04.18-.12.51-.11.51.46.15.94.27,1.41.39Zm-31.8,27.58c.05-.08.1-.17.16-.25-1.01-.56-2.01-1.13-3.02-1.69-.04.07-.08.14-.11.2.99.58,1.98,1.16,2.97,1.74Z"/>
    <path class="cls-3" d="m51.89,61.21c.22-.07.43-.16.65-.22.81-.23.99-.73.65-1.47-.28-.61-.58-1.22-.84-1.84-1.47-3.45,1.2-4.89,3.61-4.97.8-.02,1.6-.14,2.38-.33.74-.18,1.06-.7.95-1.53-.11-.86-.1-1.74-.05-2.61.05-1.16.78-1.84,2.16-1.98-1.4,1.46-.88,2.97-.39,4.5.42,1.31-.05,2.34-1.32,2.86-.58.24-1.21.4-1.85.6.13.83.34,1.64.35,2.45.02.9-.66,1.37-1.43,1.63-.67.23-1.46.28-1.81-.41-.25-.5-.12-1.19-.12-1.8,0-.11.22-.21.39-.36.12.23.22.41.31.58.34.66.74.51,1.06.02.41-.63.42-1.34-.17-1.84-.62-.52-1.5-.63-2.02,0-.44.54-.74,1.37-.72,2.07.01.69.48,1.37.78,2.04.22.49.55.94.71,1.44.37,1.18-.4,2.13-1.63,1.98-.58-.07-1.13-.34-1.69-.53.02-.1.03-.2.05-.3Z"/>
    <path class="cls-3" d="m51.23,17.42c1.35.67,2.4,1.3,2.88,2.53.11.29-.02.67-.03,1.01-.35-.05-.78.01-1.04-.17-1.1-.75-1.43-1.94-1.81-3.38Z"/>
    <path class="cls-3" d="m54.95,18.6c.37.63.78,1.23,1.08,1.89.07.15-.24.47-.37.72-.22-.13-.55-.22-.62-.4-.24-.64-.39-1.31-.58-1.97.17-.08.33-.16.5-.24Z"/>
    <path class="cls-1" d="m33.66,59.09c1.52.27,4.27-1.87,4.62-4.22.27-1.85.2-3.68-.61-5.42-.08-.18-.14-.37-.21-.56,0-.02.03-.05.05-.08,1.55,1.09,2.43,4.41,1.79,6.61-.79,2.7-3.28,3.36-5.4,4.48,2.28,1.76,6.22.9,8.48-1.74,1.62-1.89,1.72-4.05,1.19-6.28-.56-2.33-2.45-3.51-4.56-4.55.61-.39,1.14-.6,1.49-.98.36-.39.75-.93.77-1.43.13-2.52,1.12-4.61,2.9-6.37.36-.36.69-.74,1.08-1.07.57-.48,1.01-.95.22-1.62.57-.6,1.09-1.13,1.57-1.69.52-.62.75-1.33.16-2.01-.62-.72-1.38-.46-2,0-1.98,1.46-3.18,3.53-4.38,5.61-.7,1.21-1.39,2.5-2.36,3.48-1.45,1.47-3.51.89-4.03-.96.06-.02.13-.07.19-.06,3.28.48,4.2-.02,5.81-2.87.94-1.66,2.04-3.23,3.18-5.03-.66.63-1.24,1.11-1.72,1.66-.93,1.06-1.87,2.13-2.71,3.27-1.8,2.43-4.22,2.49-6.1.07-.76-.98-1.08-2.13-1.06-3.67,1.1,2.18,1.76,4.7,4.77,3.68,1.4-.48,2.44-2.61,2.03-3.78-.42.42-.76.81-1.14,1.14-.3.27-.66.47-1,.7-.16-.44-.37-.87-.48-1.32-.06-.24.06-.52.1-.77-.09-.05-.18-.1-.26-.15-.33.52-.67,1.04-1,1.55-.08,0-.16,0-.24,0,.09-.6,0-1.34.31-1.78.76-1.04,1.65-2.01,2.62-2.87.65-.58,1.4-.18,2.01.31,2.08,1.68,3.71,1.56,5.59-.4,2.5-2.61,3.01-6.83,1.35-10.06-1.09-2.12-2.06-4.31-3.01-6.51-.67-1.56-.61-2.94.1-4.65.07.82.12,1.42.17,2.02.19,2.26,1.18,4.21,2.48,5.99,1.07,1.47,2.23,2.88,3.39,4.28,1.41,1.71,1.42,2.51.27,4.44-1.15,1.93-1.75,4.06-1.57,6.32.11,1.32.87,2.38,1.81,3.3.26.25.53.49.89.83-.97.28-1.83.5-2.67.77-1.83.6-3.33,1.69-4.66,3.1-2.9,3.1-2.38,11.2,3.41,13.52.16.06.31.13.47.19,1.75.71,1.85.94,1.22,2.72-1.67,4.71-6.02,7.79-10.97,7.8-5.74,0-10.34-6.45-8.45-11.85.58-1.67,1.73-2.88,3.3-3.66,1.24-.63,2.34-.37,3.07.81,1.62,2.63,1.62,4.73-.14,7.02-.76.99-1.53,1.98-2.12,2.75Z"/>
    <path class="cls-1" d="m42.74,28.15c-.48.3-.86.54-1.23.78-.16-.3-.3-.62-.49-.9-.78-1.15-1.96-1.42-3.32-1.55.07.44.12.78.17,1.12-.07.07-.15.14-.22.21-.34-.3-.76-.53-.99-.9-.83-1.32-1.98-1.64-3.46-1.46-1.07.13-2.18.03-3.32.19.8,1.18,1.19,2.59,2.78,2.91.02.1.05.19.07.29-.39.19-.77.52-1.16.54-.87.04-1.75-.13-2.62-.1-.39.01-.88.22-1.12.51-.14.16.07.69.22,1.01.12.26.38.47.58.7.82.96,1.64,1.83,1.75,3.27.07.97.78,1.9,1.23,2.83.22.45.53.86.76,1.31.62,1.2,1.22,2.41,1.83,3.63.13-.06.04,0,.03-.02-.72-.87-1.72-.93-2.75-1.15-3.09-.67-6.15-1.48-9.19-2.37-.96-.28-1.68-.25-2.48.44,2.26.72,4.51,1.34,6.68,2.15,2.2.81,4.33,1.81,6.55,2.75-.39.84-.92.87-1.48.62-.71-.31-1.42-.64-2.07-1.05-.71-.45-1.15-.35-1.47.43-.13.33-.34.63-.55,1,.79.13,1.48.19,2.15.38.62.17.8.57.31,1.12-.29.33-.5.75-.82,1.02-.48.39-.5,1.53-1.53,1.04-1.21-.57-2.02-1.82-1.71-2.8.3-.95.77-1.84,1.23-2.88-3.45-1.23-6.82-2.95-10.93-1.92.27.5.48.98.77,1.39,1.67,2.41,3.99,4.08,6.4,5.65,1.13.73,2.32,1.37,3.48,2.06.26.15.49.35.74.53-.05.1-.09.2-.14.3-.32-.08-.67-.11-.95-.25-3.86-1.97-7.56-4.19-10.56-7.38-.53-.56-.98-1.21-1.37-1.87-.66-1.1-.4-1.9.78-2.41.61-.26,1.28-.48,1.94-.52,2.09-.12,3.72-1.16,4.88-2.73,1.96-2.64,3.71-5.45,5.53-8.2.48-.73.95-1.48,1.34-2.26.33-.66.84-.97,1.52-.96,2.12.03,4.26-.07,6.35.2,2.25.28,4.14,1.5,5.86,3.25Zm-15.37,2.68c-.43.67-.71,1.09-.98,1.51q-1.36,2.14.66,3.65c.67.5,2,.56,2.55.07.68-.6.55-1.44.18-2.04-.65-1.07-1.51-2.02-2.42-3.19Zm-5.61,7.48c2.65.69,5.1,1.32,7.55,1.96.08-.12.16-.24.25-.36-1.51-1.4-3.01-2.81-4.55-4.18-.14-.12-.61-.1-.76.04-.82.78-1.59,1.62-2.48,2.54Zm6.26-1.18c.68.91,1.37,1.62,1.81,2.46.52,1,1.2.91,2.07.69-.26-.56-.52-1.03-.7-1.53-.61-1.73-.6-1.73-2.48-1.69-.17,0-.33.03-.7.06Zm.79-9.18h1.97c-.47-.54-.81-.93-1.24-1.43-.27.53-.48.93-.73,1.43Z"/>
    <path class="cls-1" d="m50.88,50.07c4.31,1.41,6.95-2.01,6.88-5.26-.03-1.27-.3-2.56-.19-3.82.09-1.03.39-2.16.95-3.01,1.17-1.77,1.45-3.53.63-5.45-1.03-2.41-2.11-4.81-3.17-7.21-.15-.34-.39-.66-.46-1.01-.09-.45-.04-.93-.05-1.39.49.06.98.12,1.47.18-1.3.45-1.35.64-.78,1.85,1.15,2.43,2.33,4.86,3.33,7.36.59,1.46.94,3.04.54,4.63-.13.53-.4,1.13-.8,1.47-1.18,1.02-1.23,2.33-1.18,3.69.04,1.01.15,2.01.19,3.02.08,2.56-1.23,4.33-3.44,5.36-2.29,1.06-4.64.94-6.71-.59-2.06-1.52-2.33-5.49-.49-7.27.6-.58,1.56-.93,2.4-1.1,1.02-.2,1.89.77,1.84,1.94-.07,1.7-.65,3.17-2.28,4.01-.49.25-.88.49-.62,1.15.26.66.74.77,1.3.5.97-.45,2.02-.83,2.85-1.46,1.96-1.49,2.25-3.77.89-5.82-.17-.25-.35-.48-.55-.75.82.16,1.35.67,1.68,1.59.67,1.88.17,3.56-1.15,4.92-.92.95-2.07,1.67-3.11,2.47Z"/>
    <path class="cls-1" d="m16.87,51.19c1.22.64,2.39,1.33,3.09,2.65.21.39.58.81.97.97,2.86,1.2,4.69,3.21,5.17,6.33.02.1.06.2.06.3.09,1.05-.65,2.32-1.47,2.54-.64.17-1.61-.49-2.09-1.48-.2-.42-.46-.9-.42-1.33.04-.47.31-1.05.67-1.29.22-.14.86.22,1.21.48.27.2.4.6.69.89.13-1.42.02-2.89-1-3.93-.89-.9-2.02-1.69-3.19-2.16-1.21-.48-1.83.29-1.42,1.68-1.72-.22-3.44.2-5.07-.53.72.05,1.44.07,2.16.15.94.1,1.63-.33,2.23-.96.8-.83.79-1.86-.02-2.69-.28-.29-.6-.54-.91-.8-.27-.22-.55-.43-.83-.64.05-.07.11-.13.16-.2Z"/>
    <path class="cls-1" d="m32.58,21.66c1.73-.98,3.52-1.23,5.39-.98,2.57.35,4.69,1.62,6.66,3.2.6.49.57.66-.15,1.58-3.58-2.38-7.49-3.82-11.9-3.8Z"/>
    <path class="cls-1" d="m13.47,33.2c.63.26,1.05.34,1.36.57.63.45,1.23.93,1.78,1.47,1.25,1.21,1.21,1.38-.3,2.19-1.97,1.06-2.26.97-3.07-1.1-.23-.59-.43-1.23-.41-1.84,0-.42.4-.84.64-1.28Z"/>
    <path class="cls-1" d="m15.41,32.8c-1.12-1.07-2.29-2.14-2.15-3.8.13-1.52,2.14-3.47,4.03-4.06-1.14,2.54-2,5.07-1.88,7.86Z"/>
    <path class="cls-1" d="m23.94,30.84c-1.84-1-3-3.22-2.58-4.76.42-1.54,1.77-2.66,3.34-2.66-1.66,2.3-1,4.82-.76,7.42Z"/>
    <path class="cls-1" d="m42.06,38.12c-.85,2.03-1.64,4.08-2.58,6.06-.34.73-.95,1.38-1.55,1.93-.58.52-1.35.53-1.92-.06-.55-.57-.95-1.32-.48-2.08.21-.35.83-.76,1.15-.68.6.15.68.74.36,1.31-.08.14-.12.3-.19.47.77.54,1.41.38,1.83-.32.37-.63.62-1.33.81-2.04.48-1.78,1.26-3.37,2.57-4.6Z"/>
    <path class="cls-1" d="m45.04,21.54c-1.96-.88-3.8-1.72-5.86-2.65,1.47-.94,2.62-.34,3.68.17,1,.47,2.15.97,2.18,2.48Z"/>
    <path class="cls-1" d="m32.01,23.39c2.59-1.13,10.33,1.22,11.68,3.5-3.55-2.03-7.27-3.5-11.68-3.5Z"/>
    <path class="cls-1" d="m27.19,58.15c-.68-.86-1.26-1.84-2.08-2.53-.95-.8-2.08-1.43-3.2-1.98-.57-.28-.79-.5-.47-1.24,1.75,1.06,3.56,1.98,5.12,3.21.56.44.52,1.65.76,2.5-.04.02-.08.03-.13.05Z"/>
    <path class="cls-1" d="m35.46,28.44q-.29.98-1.86,1.49c.12.4.23.81.35,1.21-.06.05-.11.11-.17.16-.17-.12-.5-.24-.5-.36,0-.76-.17-1.66.18-2.24.21-.35,1.25-.19,2-.27Z"/>
    <path class="cls-1" d="m28.02,24.02c-.49.89-.99,1.77-1.54,2.76-.63-.78-.56-1.56-.18-2.15.28-.44.96-.62,1.46-.92.09.1.17.21.26.31Z"/>
    <path class="cls-1" d="m26.46,54.24c-1.48-.89-2.97-1.78-4.45-2.66.06-.11.13-.21.19-.32,1.47.91,2.94,1.82,4.41,2.74l-.15.24Z"/>
    <path class="cls-1" d="m58.45,25.59c-.47-.12-.94-.24-1.41-.39-.02,0,.07-.33.11-.51.48.14.96.29,1.44.43l-.14.47Z"/>
    <path class="cls-1" d="m26.66,53.17c-.99-.58-1.98-1.16-2.97-1.74.04-.07.08-.14.11-.2,1.01.56,2.01,1.13,3.02,1.69-.05.08-.1.17-.16.25Z"/>
    <path class="cls-3" d="m27.38,30.84c.91,1.17,1.76,2.12,2.42,3.19.37.6.5,1.44-.18,2.04-.55.49-1.88.43-2.55-.07q-2.02-1.51-.66-3.65c.27-.42.54-.84.98-1.51Z"/>
    <path class="cls-3" d="m21.77,38.32c.89-.93,1.66-1.76,2.48-2.54.15-.14.62-.17.76-.04,1.54,1.37,3.04,2.78,4.55,4.18-.08.12-.16.24-.25.36-2.45-.63-4.9-1.27-7.55-1.96Z"/>
    <path class="cls-3" d="m28.03,37.14c.37-.03.53-.06.7-.06,1.88-.04,1.87-.04,2.48,1.69.18.5.44.97.7,1.53-.86.22-1.55.31-2.07-.69-.44-.84-1.13-1.55-1.81-2.46Z"/>
    <path class="cls-3" d="m28.82,27.96c.25-.5.46-.89.73-1.43.43.5.77.89,1.24,1.43h-1.97Z"/>
  </g>
</svg>